<svg width="12" height="13" viewBox="0 0 12 13" fill="none" xmlns="http://www.w3.org/2000/svg">
<path d="M7.94433 2.5261L9.51567 4.25492M6.55556 11.9998H11M1 12L1.02636 11.797C1.11964 11.0786 1.16629 10.7194 1.27238 10.384C1.36653 10.0864 1.49513 9.80342 1.65503 9.542C1.83523 9.24739 2.06844 8.99079 2.53486 8.47766L9.00594 1.35805C9.43989 0.880654 10.1434 0.880647 10.5773 1.35805C11.0112 1.83545 11.0112 2.60947 10.5773 3.08687L3.98747 10.3371C3.56433 10.8027 3.35276 11.0354 3.11178 11.2206C2.89788 11.3849 2.66718 11.521 2.42443 11.6261C2.15095 11.7445 1.85764 11.8096 1.27107 11.9399L1 12Z" stroke="#FAF6F6" stroke-width="1.5" stroke-linecap="round" stroke-linejoin="round"/>
</svg>
