<svg width="15" height="15" viewBox="0 0 15 15" fill="none" xmlns="http://www.w3.org/2000/svg">
<path d="M10.0276 2.80357L12.0704 4.84672M8.22222 13.9997H14M1 14L1.03427 13.7601C1.15554 12.911 1.21618 12.4865 1.3541 12.0901C1.47649 11.7385 1.64367 11.404 1.85154 11.0951C2.0858 10.7469 2.38897 10.4437 2.99531 9.83724L11.4077 1.42315C11.9719 0.858954 12.8864 0.858947 13.4505 1.42315C14.0146 1.98735 14.0146 2.9021 13.4505 3.4663L4.88371 12.0347C4.33363 12.585 4.05859 12.86 3.74531 13.0788C3.46724 13.273 3.16734 13.4339 2.85176 13.5581C2.49624 13.6981 2.11493 13.775 1.35239 13.9289L1 14Z" stroke="#0B5268" stroke-width="1.5" stroke-linecap="round" stroke-linejoin="round"/>
</svg>
