<svg width="25" height="22" viewBox="0 0 25 22" fill="none" xmlns="http://www.w3.org/2000/svg">
<path d="M2.17184 9.76562H23.8704C24.1582 9.76562 24.4341 9.87993 24.6376 10.0834C24.8411 10.2869 24.9554 10.5628 24.9554 10.8506C24.9554 11.1383 24.8411 11.4143 24.6376 11.6177C24.4341 11.8212 24.1582 11.9355 23.8704 11.9355H2.17184C1.8841 11.9355 1.60815 11.8212 1.40468 11.6177C1.20122 11.4143 1.08691 11.1383 1.08691 10.8506C1.08691 10.5628 1.20122 10.2869 1.40468 10.0834C1.60815 9.87993 1.8841 9.76562 2.17184 9.76562Z" fill="#FAF6F6"/>
<path d="M2.62096 10.8507L11.6194 19.8469C11.8231 20.0506 11.9375 20.3269 11.9375 20.615C11.9375 20.9031 11.8231 21.1794 11.6194 21.3832C11.4156 21.5869 11.1393 21.7013 10.8512 21.7013C10.5631 21.7013 10.2868 21.5869 10.0831 21.3832L0.318739 11.6188C0.217703 11.518 0.137543 11.3983 0.0828481 11.2665C0.0281536 11.1347 0 10.9934 0 10.8507C0 10.708 0.0281536 10.5667 0.0828481 10.4348C0.137543 10.303 0.217703 10.1833 0.318739 10.0825L10.0831 0.31817C10.2868 0.114449 10.5631 0 10.8512 0C11.1393 0 11.4156 0.114449 11.6194 0.31817C11.8231 0.521891 11.9375 0.798195 11.9375 1.0863C11.9375 1.3744 11.8231 1.65071 11.6194 1.85443L2.62096 10.8507Z" fill="#FAF6F6"/>
</svg>
