<svg width="16" height="18" viewBox="0 0 16 18" fill="none" xmlns="http://www.w3.org/2000/svg">
<path d="M1 7.22222V4.55556C1 3.57372 1.78348 2.77778 2.75 2.77778H13.25C14.2165 2.77778 15 3.57372 15 4.55556V7.22222M1 7.22222V15.2222C1 16.2041 1.78348 17 2.75 17H13.25C14.2165 17 15 16.2041 15 15.2222V7.22222M1 7.22222H15M11.5 1V4.55556M4.5 1V4.55556" stroke="#0B5268" stroke-width="1.5" stroke-linecap="round"/>
<path d="M11.3333 9H12.6667C12.8508 9 13 9.22386 13 9.5V11.5C13 11.7761 12.8508 12 12.6667 12H11.3333C11.1492 12 11 11.7761 11 11.5V9.5C11 9.22386 11.1492 9 11.3333 9Z" fill="#0B5268"/>
<path d="M7.33333 9H8.66667C8.85076 9 9 9.22386 9 9.5V11.5C9 11.7761 8.85076 12 8.66667 12H7.33333C7.14924 12 7 11.7761 7 11.5V9.5C7 9.22386 7.14924 9 7.33333 9Z" fill="#0B5268"/>
<path d="M3.33333 9H4.66667C4.85076 9 5 9.22386 5 9.5V11.5C5 11.7761 4.85076 12 4.66667 12H3.33333C3.14924 12 3 11.7761 3 11.5V9.5C3 9.22386 3.14924 9 3.33333 9Z" fill="#0B5268"/>
</svg>
