<svg width="14" height="16" viewBox="0 0 14 16" fill="none" xmlns="http://www.w3.org/2000/svg">
<path d="M1 6.44444V4.11111C1 3.252 1.68554 2.55556 2.53125 2.55556H11.7188C12.5644 2.55556 13.25 3.252 13.25 4.11111V6.44444M1 6.44444V13.4444C1 14.3036 1.68554 15 2.53125 15H11.7188C12.5644 15 13.25 14.3036 13.25 13.4444V6.44444M1 6.44444H13.25M10.1875 1V4.11111M4.0625 1V4.11111" stroke="#FAF6F6" stroke-width="1.5" stroke-linecap="round"/>
<path d="M10.0417 8H11.2083C11.3694 8 11.5 8.19588 11.5 8.4375V10.1875C11.5 10.4291 11.3694 10.625 11.2083 10.625H10.0417C9.88058 10.625 9.75 10.4291 9.75 10.1875V8.4375C9.75 8.19588 9.88058 8 10.0417 8Z" fill="#FAF6F6"/>
<path d="M6.54173 8H7.70839C7.86948 8 8.00006 8.19588 8.00006 8.4375V10.1875C8.00006 10.4291 7.86948 10.625 7.70839 10.625H6.54173C6.38064 10.625 6.25006 10.4291 6.25006 10.1875V8.4375C6.25006 8.19588 6.38064 8 6.54173 8Z" fill="#FAF6F6"/>
<path d="M3.04167 8H4.20833C4.36942 8 4.5 8.19588 4.5 8.4375V10.1875C4.5 10.4291 4.36942 10.625 4.20833 10.625H3.04167C2.88058 10.625 2.75 10.4291 2.75 10.1875V8.4375C2.75 8.19588 2.88058 8 3.04167 8Z" fill="#FAF6F6"/>
</svg>
