<svg width="18" height="18" viewBox="0 0 18 18" fill="none" xmlns="http://www.w3.org/2000/svg">
<path fill-rule="evenodd" clip-rule="evenodd" d="M0.568017 0C0.254312 0 0 0.247348 0 0.552468V0.968871C0 1.27399 0.254312 1.52134 0.568017 1.52134H1.88803C2.10369 1.52134 2.30075 1.64012 2.39671 1.82796L3.11171 3.41481C3.13841 3.46706 3.15944 3.52691 3.19902 3.56673L6.27023 10.6912C6.2397 10.7054 6.21039 10.7227 6.18282 10.743C5.3319 11.3695 4.75621 12.1762 4.75616 12.988C4.75612 13.4605 4.95892 13.902 5.3654 14.207C5.75136 14.4965 6.25597 14.6159 6.7977 14.6159H6.81549C6.46338 14.9752 6.24724 15.4617 6.24724 15.9973C6.24724 17.1034 7.16912 18 8.3063 18C9.44349 18 10.3654 17.1034 10.3654 15.9973C10.3654 15.4617 10.1492 14.9752 9.79705 14.6159H12.4957C12.1436 14.9752 11.9274 15.4617 11.9274 15.9973C11.9274 17.1034 12.8493 18 13.9865 18C15.1237 18 16.0456 17.1034 16.0456 15.9973C16.0456 15.4617 15.8294 14.9752 15.4773 14.6159H15.9035C16.2173 14.6159 16.4716 14.3685 16.4716 14.0634V13.7872C16.4716 13.482 16.2173 13.2346 15.9035 13.2346H6.7977C6.45175 13.2346 6.29058 13.1567 6.23271 13.1133C6.19531 13.0852 6.17621 13.0582 6.17621 12.9881C6.17623 12.8019 6.34922 12.3721 6.97084 11.8957C6.99812 11.8747 7.02367 11.8519 7.04714 11.8274C7.10944 11.8446 7.17473 11.8538 7.2416 11.8538H15.8701C16.2172 11.8538 16.5134 11.6097 16.5704 11.2767L17.9902 2.98964C18.0623 2.56871 17.7285 2.18555 17.2898 2.18555H4.39914C4.29099 2.18555 4.19274 2.12259 4.14754 2.02434L3.35747 0.306616C3.2615 0.118779 3.06444 0 2.84879 0H0.568017ZM5.17615 3.56673C4.97736 3.56673 4.84332 3.76998 4.92161 3.9527L7.64307 10.3047C7.68669 10.4066 7.7868 10.4726 7.89757 10.4726H15.035C15.17 10.4726 15.2852 10.3754 15.308 10.2424L16.3962 3.89041C16.4252 3.72124 16.2949 3.56673 16.1233 3.56673H5.17615ZM7.52524 15.9973C7.52524 15.5778 7.87493 15.2376 8.3063 15.2376C8.73761 15.2376 9.0873 15.5778 9.0873 15.9973C9.0873 16.4168 8.73761 16.757 8.3063 16.757C7.87493 16.757 7.52524 16.4168 7.52524 15.9973ZM13.9865 15.2376C13.5552 15.2376 13.2055 15.5778 13.2055 15.9973C13.2055 16.4168 13.5552 16.757 13.9865 16.757C14.4179 16.757 14.7675 16.4168 14.7675 15.9973C14.7675 15.5778 14.4179 15.2376 13.9865 15.2376Z" fill="#FAF6F6"/>
</svg>
