<svg width="23" height="21" viewBox="0 0 23 21" fill="none" xmlns="http://www.w3.org/2000/svg">
<path fill-rule="evenodd" clip-rule="evenodd" d="M8.84392 3.32854C8.19954 2.99194 7.48354 2.81632 6.7566 2.81656L6.75628 2.81656C5.55582 2.81656 4.40445 3.29361 3.55559 4.14271C2.70675 4.99177 2.22992 6.14333 2.22992 7.34414C2.22992 11.2487 4.48258 14.1227 6.86801 16.0745C8.05403 17.045 9.24489 17.7626 10.141 18.2377C10.5879 18.4746 10.9585 18.6496 11.2144 18.7642C11.2262 18.7695 11.2378 18.7747 11.2491 18.7797C11.2605 18.7747 11.272 18.7695 11.2838 18.7642C11.5398 18.6496 11.9104 18.4746 12.3573 18.2377C13.2534 17.7626 14.4442 17.045 15.6303 16.0745C18.0157 14.1227 20.2683 11.2487 20.2683 7.34414C20.2683 6.14344 19.7914 4.99185 18.9424 4.14271C18.0936 3.29363 16.9425 2.81661 15.7422 2.81656M11.2491 19.8276C10.9017 20.7281 10.9013 20.7279 10.9009 20.7278L10.8999 20.7274L10.8972 20.7263L10.8891 20.7231C10.8825 20.7205 10.8735 20.717 10.8622 20.7125C10.8396 20.7034 10.8078 20.6905 10.7673 20.6738C10.6864 20.6402 10.5709 20.591 10.4258 20.5261C10.1358 20.3962 9.72636 20.2026 9.23726 19.9433C8.26132 19.4259 6.95614 18.6405 5.64614 17.5687C3.03951 15.4359 0.30011 12.0681 0.30011 7.34414C0.30011 5.63142 0.980222 3.98887 2.19101 2.77776C3.40169 1.56675 5.04378 0.886316 6.75596 0.886231M11.2491 19.8276L11.5966 20.7281C11.373 20.8144 11.1253 20.8144 10.9017 20.7281L11.2491 19.8276ZM6.75628 0.886231C7.79443 0.885935 8.81702 1.1368 9.73724 1.61748C10.2938 1.90821 10.803 2.2778 11.2497 2.71312C11.6962 2.27841 12.205 1.90926 12.7613 1.6187C13.6812 1.13818 14.7036 0.886872 15.7414 0.886231L15.742 0.88623C17.4543 0.886231 19.0963 1.5667 20.307 2.77776C21.5177 3.98879 22.1982 5.63131 22.1982 7.34414C22.1982 12.0681 19.4588 15.4359 16.8521 17.5687C15.5421 18.6405 14.2369 19.4259 13.261 19.9433C12.7719 20.2026 12.3625 20.3962 12.0724 20.5261C11.9273 20.591 11.8119 20.6402 11.731 20.6738C11.6905 20.6905 11.6587 20.7034 11.6361 20.7125C11.63 20.7149 11.6247 20.717 11.62 20.7189C11.6159 20.7205 11.6123 20.7219 11.6092 20.7231L11.6011 20.7263L11.5984 20.7274L11.5974 20.7278C11.597 20.7279 11.5966 20.7281 11.2491 19.8276M15.742 2.81656C15.0151 2.81711 14.2989 2.99318 13.6546 3.32976C13.0101 3.66641 12.4565 4.15368 12.0406 4.75029C11.8601 5.00929 11.5643 5.16359 11.2487 5.16343C10.933 5.16328 10.6374 5.00871 10.4571 4.74954C10.042 4.15276 9.48838 3.66518 8.84392 3.32854" fill="#FAF6F6"/>
</svg>
