<svg width="26" height="24" viewBox="0 0 26 24" fill="none" xmlns="http://www.w3.org/2000/svg">
<path fill-rule="evenodd" clip-rule="evenodd" d="M10.0452 2.8715C9.2876 2.47575 8.44577 2.26926 7.59109 2.26955C6.17968 2.26955 4.82559 2.83043 3.82756 3.82873C2.82955 4.82701 2.26894 6.18092 2.26894 7.59275C2.26894 12.1835 4.91745 15.5626 7.72207 17.8573C9.11651 18.9983 10.5166 19.8421 11.5702 20.4006C12.0956 20.6792 12.5313 20.8849 12.8323 21.0197C12.8462 21.0259 12.8598 21.032 12.8731 21.0379C12.8864 21.032 12.9 21.0259 12.9139 21.0197C13.2148 20.8849 13.6505 20.6792 14.176 20.4006C15.2295 19.8421 16.6297 18.9983 18.0241 17.8573C20.8287 15.5626 23.4772 12.1835 23.4772 7.59275C23.4772 6.18105 22.9164 4.8271 21.9183 3.82873C20.9203 2.83045 19.567 2.26961 18.1557 2.26955M12.8731 22.27C12.4646 23.3286 12.4636 23.3283 12.4636 23.3283L12.4625 23.3278L12.4593 23.3266L12.4498 23.3228C12.442 23.3198 12.4314 23.3156 12.4181 23.3103C12.3916 23.2997 12.3542 23.2845 12.3066 23.2648C12.2115 23.2253 12.0757 23.1675 11.9051 23.0911C11.5641 22.9384 11.0827 22.7108 10.5077 22.4059C9.36022 21.7976 7.82569 20.8743 6.28548 19.614C3.22079 17.1064 0 13.1469 0 7.59275C0 5.57905 0.799628 3.64786 2.22318 2.22392C3.64662 0.800103 5.57727 0.000100786 7.59033 3.06298e-07M12.8731 22.27L13.2816 23.3286C13.0187 23.4301 12.7265 23.4298 12.4636 23.3283L12.8731 22.27ZM7.59033 3.06298e-07C8.81091 -0.00034696 10.0136 0.294596 11.0955 0.859751C11.7499 1.20157 12.3485 1.63611 12.8737 2.14793C13.3988 1.63683 13.997 1.2028 14.651 0.861184C15.7325 0.296224 16.9346 0.000753703 18.1548 5.06856e-07C20.168 8.07693e-07 22.0992 0.800051 23.5227 2.22392C24.9462 3.64777 25.7462 5.57893 25.7462 7.59275C25.7462 13.1469 22.5254 17.1064 19.4607 19.614C17.9205 20.8743 16.3859 21.7976 15.2385 22.4059C14.6635 22.7108 14.1821 22.9384 13.8411 23.0911C13.6705 23.1675 13.5347 23.2253 13.4396 23.2648C13.392 23.2845 13.3546 23.2997 13.328 23.3103C13.3209 23.3131 13.3146 23.3156 13.3091 23.3178C13.3043 23.3197 13.3 23.3214 13.2964 23.3228L13.2869 23.3266L13.2837 23.3278L13.2816 23.3286C13.2816 23.3286 13.2816 23.3286 12.8731 22.27M18.1557 2.26955C17.3011 2.27019 16.4588 2.4772 15.7012 2.87293C14.9435 3.26874 14.2926 3.84163 13.8037 4.54309C13.5914 4.8476 13.2437 5.02901 12.8725 5.02883C12.5014 5.02866 12.1539 4.84692 11.9419 4.54221C11.4538 3.84055 10.8029 3.26729 10.0452 2.8715" fill="#F07168"/>
</svg>
