<svg width="44" height="29" viewBox="0 0 44 29" fill="none" xmlns="http://www.w3.org/2000/svg">
<path d="M1.58911 0.920757C1.58911 0.672479 1.71294 0.54834 1.96059 0.54834H5.70636C6.94464 0.54834 7.9043 0.765583 8.55439 1.20007C9.20448 1.63456 9.51405 2.34836 9.51405 3.34147C9.51405 4.30355 9.11161 4.98631 8.27578 5.38977C8.74013 5.54494 9.14257 5.79322 9.42118 6.16564C9.69979 6.53805 9.85457 7.00358 9.85457 7.53117C9.85457 9.57946 8.49248 10.6036 5.76828 10.6036H1.96059C1.71294 10.6036 1.58911 10.4795 1.58911 10.2312V0.920757ZM5.58254 4.42769C6.07785 4.42769 6.44933 4.36562 6.66602 4.24148C6.88272 4.11734 7.00655 3.9001 7.00655 3.58975C7.00655 3.2794 6.88272 3.06216 6.66602 2.93802C6.44933 2.81388 6.07785 2.75181 5.58254 2.75181H4.31331C4.15852 2.75181 4.09661 2.81388 4.09661 2.96905V4.24148C4.09661 4.39665 4.15852 4.45872 4.31331 4.45872H5.58254V4.42769ZM5.76828 8.43118C6.29454 8.43118 6.66602 8.36911 6.91368 8.21393C7.16133 8.05876 7.28516 7.84152 7.28516 7.53117C7.28516 6.94151 6.78985 6.63116 5.76828 6.63116H4.31331C4.22044 6.63116 4.15852 6.63116 4.12757 6.66219C4.09661 6.69323 4.09661 6.7553 4.09661 6.8484V8.21393C4.09661 8.36911 4.15852 8.43118 4.31331 8.43118H5.76828Z" fill="#F07168"/>
<path d="M10.8142 5.607C10.8142 4.0863 11.3095 2.81387 12.3311 1.85179C13.3527 0.858678 14.6219 0.362122 16.1697 0.362122C17.7485 0.362122 19.0178 0.858678 20.0393 1.82076C21.0609 2.78283 21.5562 4.05526 21.5562 5.57597C21.5562 7.09667 21.0609 8.33806 20.0393 9.33117C19.0178 10.2933 17.7176 10.7898 16.1697 10.7898C14.6219 10.7898 13.3527 10.2933 12.3311 9.33117C11.3095 8.3691 10.8142 7.1277 10.8142 5.607ZM14.1885 7.68633C14.7148 8.21392 15.3649 8.49324 16.1697 8.49324C16.9746 8.49324 17.6557 8.21392 18.1819 7.68633C18.7082 7.15874 18.9868 6.44494 18.9868 5.607C18.9868 4.73803 18.7082 4.02423 18.1819 3.49663C17.6557 2.96904 16.9746 2.68973 16.1697 2.68973C15.3649 2.68973 14.7148 2.96904 14.1885 3.49663C13.6622 4.02423 13.4146 4.73803 13.4146 5.607C13.3836 6.44494 13.6622 7.15874 14.1885 7.68633Z" fill="#F07168"/>
<path d="M22.6089 5.607C22.6089 4.0863 23.1042 2.81387 24.1258 1.85179C25.1473 0.858678 26.4166 0.362122 27.9644 0.362122C29.5432 0.362122 30.8124 0.858678 31.834 1.82076C32.8556 2.78283 33.3509 4.05526 33.3509 5.57597C33.3509 7.09667 32.8556 8.33806 31.834 9.33117C30.8124 10.2933 29.5123 10.7898 27.9644 10.7898C26.4166 10.7898 25.1473 10.2933 24.1258 9.33117C23.1042 8.3691 22.6089 7.1277 22.6089 5.607ZM25.9832 7.68633C26.5094 8.21392 27.1595 8.49324 27.9644 8.49324C28.7693 8.49324 29.4503 8.21392 29.9766 7.68633C30.5029 7.15874 30.7815 6.44494 30.7815 5.607C30.7815 4.73803 30.5029 4.02423 29.9766 3.49663C29.4503 2.96904 28.7693 2.68973 27.9644 2.68973C27.1595 2.68973 26.5094 2.96904 25.9832 3.49663C25.4569 4.02423 25.2093 4.73803 25.2093 5.607C25.2093 6.44494 25.4569 7.15874 25.9832 7.68633Z" fill="#F07168"/>
<path d="M34.9607 0.920757C34.9607 0.672479 35.0845 0.54834 35.3322 0.54834H37.0658C37.3134 0.54834 37.4682 0.672479 37.4682 0.920757V10.2312C37.4682 10.4795 37.3444 10.6036 37.0658 10.6036H35.3322C35.0845 10.6036 34.9607 10.4795 34.9607 10.2312V0.920757ZM37.8087 5.85529C37.7158 5.73115 37.6849 5.60701 37.6849 5.51391C37.6849 5.4208 37.7468 5.29666 37.8397 5.17252L40.8425 0.920757C40.9354 0.765583 41.0592 0.641444 41.1211 0.610409C41.214 0.54834 41.3378 0.54834 41.5235 0.54834H43.5357C43.7215 0.54834 43.8453 0.610409 43.8453 0.734549C43.8453 0.796618 43.8143 0.858688 43.7524 0.951792L40.44 5.4208L43.9072 10.1691C43.9691 10.2312 44.0001 10.3243 44.0001 10.3864C44.0001 10.5105 43.9072 10.5726 43.6905 10.5726H41.6164C41.4307 10.5726 41.2759 10.5415 41.183 10.5105C41.0901 10.4484 40.9973 10.3553 40.9044 10.2002L37.8087 5.85529Z" fill="#F07168"/>
<path d="M21.773 24.0417C21.8969 23.8244 22.0207 23.7313 22.1755 23.7313C22.2683 23.7313 22.3922 23.7934 22.547 23.9175C23.6304 24.7244 24.7758 25.1589 25.9832 25.1589C26.6333 25.1589 27.1286 25.0658 27.4691 24.8486C27.8096 24.6313 27.9954 24.352 27.9954 24.0106C27.9954 23.6693 27.8096 23.3899 27.4691 23.2037C27.1286 23.0175 26.4475 22.8003 25.4569 22.552C23.971 22.1796 22.8565 21.683 22.1136 21.0313C21.3706 20.3796 21.0301 19.4485 21.0301 18.2382C21.0301 16.8106 21.5254 15.6933 22.516 14.9174C23.5376 14.0795 24.8068 13.7071 26.4166 13.7071C28.274 13.7071 29.9147 14.2968 31.3387 15.445C31.4935 15.5692 31.5863 15.6933 31.5863 15.8485C31.5863 15.9726 31.5244 16.1278 31.4316 16.2519L30.3481 17.9589C30.2242 18.1451 30.1004 18.2382 29.9766 18.2382C29.8837 18.2382 29.7289 18.1761 29.6051 18.083C28.4907 17.2761 27.4381 16.8726 26.4166 16.8726C25.8903 16.8726 25.4569 16.9657 25.1473 17.183C24.8378 17.4002 24.683 17.6795 24.683 17.9899C24.683 18.3623 24.8687 18.6416 25.2092 18.8278C25.5498 19.014 26.1689 19.2313 27.0666 19.4485C28.6454 19.852 29.7908 20.3796 30.5338 21.0313C31.2768 21.683 31.6483 22.6141 31.6483 23.7934C31.6483 25.221 31.1529 26.3072 30.1314 27.1452C29.1098 27.9521 27.7477 28.3555 26.0451 28.3555C24.0329 28.3555 22.3303 27.7969 20.9062 26.6486C20.6896 26.4934 20.5967 26.3383 20.5967 26.1831C20.5967 26.0589 20.6586 25.9038 20.7515 25.7486L21.773 24.0417Z" fill="#F07168"/>
<path d="M33.8462 14.483C33.8462 14.1416 34.0319 13.9554 34.3725 13.9554H42.8237C43.1951 13.9554 43.3809 14.1416 43.3809 14.483V16.6554C43.3809 16.9968 43.1951 17.183 42.8237 17.183H37.6539C37.4372 17.183 37.3443 17.2761 37.3443 17.4933V19.0761C37.3443 19.2003 37.3753 19.2934 37.4062 19.3244C37.4372 19.3554 37.53 19.3865 37.6539 19.3865H42.1736C42.5141 19.3865 42.6998 19.5727 42.6998 19.9451V22.1175C42.6998 22.4589 42.5141 22.6451 42.1736 22.6451H37.6539C37.4372 22.6451 37.3443 22.7382 37.3443 22.9555V24.6003C37.3443 24.8176 37.4372 24.9107 37.6539 24.9107H42.8546C43.2261 24.9107 43.4118 25.0969 43.4118 25.4383V27.6107C43.4118 27.9521 43.2261 28.1383 42.8546 28.1383H34.3725C34.0319 28.1383 33.8462 27.9521 33.8462 27.6107V14.483Z" fill="#F07168"/>
<path d="M11.9597 14.7933C11.9597 14.3278 11.5883 13.9554 11.1239 13.9554H9.2665C8.80215 13.9554 8.43066 14.3278 8.43066 14.7933V16.5002H11.9288V14.7933H11.9597Z" fill="#F07168"/>
<path d="M8.46167 25.252V27.2382C8.46167 27.7038 8.83315 28.0762 9.2975 28.0762H11.1549C11.6193 28.0762 11.9907 27.7038 11.9907 27.2382V25.252H8.46167Z" fill="#F07168"/>
<path d="M11.9598 24.29V17.4313H8.46167V24.29H11.9598Z" fill="#F07168"/>
<path d="M14.6221 27.3003C14.6221 27.7348 14.9626 28.0762 15.396 28.0762H17.3463C17.7797 28.0762 18.1202 27.7348 18.1202 27.3003V18.7037H14.6221V27.3003Z" fill="#F07168"/>
<path d="M18.1202 14.7313C18.1202 14.2968 17.7797 13.9554 17.3463 13.9554H15.396C14.9626 13.9554 14.6221 14.2968 14.6221 14.7313V17.152H18.1202V14.7313Z" fill="#F07168"/>
<path d="M18.1202 17.3071H14.6221V17.8037H18.1202V17.3071Z" fill="#F07168"/>
<path d="M0.0722827 26.2451C-0.113458 26.6486 0.0722827 27.1141 0.474721 27.3003L2.2083 28.1072C2.61074 28.2934 3.07509 28.1072 3.26083 27.7038L6.60416 20.3175L3.41562 18.8899L0.0722827 26.2451Z" fill="#F07168"/>
<path d="M8.05915 15.2278L6.32557 14.4209C5.92313 14.2346 5.45878 14.4209 5.27304 14.8243L4.09668 17.4312L7.28523 18.8899L8.46159 16.2829C8.61637 15.9105 8.46159 15.414 8.05915 15.2278Z" fill="#F07168"/>
<path d="M3.6896 18.2738L3.54858 18.5845L6.73257 20.0368L6.87358 19.726L3.6896 18.2738Z" fill="#F07168"/>
</svg>
