<svg width="44" height="29" viewBox="0 0 44 29" fill="none" xmlns="http://www.w3.org/2000/svg">
<path d="M1.58917 0.920757C1.58917 0.672479 1.713 0.54834 1.96065 0.54834H5.70642C6.9447 0.54834 7.90436 0.765583 8.55445 1.20007C9.20454 1.63456 9.51411 2.34836 9.51411 3.34147C9.51411 4.30355 9.11167 4.98631 8.27584 5.38977C8.74019 5.54494 9.14263 5.79322 9.42124 6.16564C9.69985 6.53805 9.85463 7.00358 9.85463 7.53117C9.85463 9.57946 8.49254 10.6036 5.76834 10.6036H1.96065C1.713 10.6036 1.58917 10.4795 1.58917 10.2312V0.920757ZM5.5826 4.42769C6.07791 4.42769 6.44939 4.36562 6.66609 4.24148C6.88278 4.11734 7.00661 3.9001 7.00661 3.58975C7.00661 3.2794 6.88278 3.06216 6.66609 2.93802C6.44939 2.81388 6.07791 2.75181 5.5826 2.75181H4.31337C4.15859 2.75181 4.09667 2.81388 4.09667 2.96905V4.24148C4.09667 4.39665 4.15859 4.45872 4.31337 4.45872H5.5826V4.42769ZM5.76834 8.43118C6.2946 8.43118 6.66609 8.36911 6.91374 8.21393C7.16139 8.05876 7.28522 7.84152 7.28522 7.53117C7.28522 6.94151 6.78991 6.63116 5.76834 6.63116H4.31337C4.2205 6.63116 4.15859 6.63116 4.12763 6.66219C4.09667 6.69323 4.09667 6.7553 4.09667 6.8484V8.21393C4.09667 8.36911 4.15859 8.43118 4.31337 8.43118H5.76834Z" fill="white"/>
<path d="M10.8143 5.60694C10.8143 4.08623 11.3096 2.81381 12.3312 1.85173C13.3527 0.858617 14.622 0.362061 16.1698 0.362061C17.7486 0.362061 19.0178 0.858617 20.0394 1.8207C21.061 2.78277 21.5563 4.0552 21.5563 5.5759C21.5563 7.09661 21.061 8.338 20.0394 9.33111C19.0178 10.2932 17.7176 10.7897 16.1698 10.7897C14.622 10.7897 13.3527 10.2932 12.3312 9.33111C11.3096 8.36903 10.8143 7.12764 10.8143 5.60694ZM14.1886 7.68627C14.7148 8.21386 15.3649 8.49317 16.1698 8.49317C16.9747 8.49317 17.6557 8.21386 18.182 7.68627C18.7083 7.15868 18.9869 6.44488 18.9869 5.60694C18.9869 4.73797 18.7083 4.02417 18.182 3.49657C17.6557 2.96898 16.9747 2.68967 16.1698 2.68967C15.3649 2.68967 14.7148 2.96898 14.1886 3.49657C13.6623 4.02417 13.4146 4.73797 13.4146 5.60694C13.3837 6.44488 13.6623 7.15868 14.1886 7.68627Z" fill="white"/>
<path d="M22.6088 5.60694C22.6088 4.08623 23.1041 2.81381 24.1257 1.85173C25.1473 0.858617 26.4165 0.362061 27.9644 0.362061C29.5431 0.362061 30.8124 0.858617 31.8339 1.8207C32.8555 2.78277 33.3508 4.0552 33.3508 5.5759C33.3508 7.09661 32.8555 8.338 31.8339 9.33111C30.8124 10.2932 29.5122 10.7897 27.9644 10.7897C26.4165 10.7897 25.1473 10.2932 24.1257 9.33111C23.1041 8.36903 22.6088 7.12764 22.6088 5.60694ZM25.9831 7.68627C26.5094 8.21386 27.1595 8.49317 27.9644 8.49317C28.7692 8.49317 29.4503 8.21386 29.9765 7.68627C30.5028 7.15868 30.7814 6.44488 30.7814 5.60694C30.7814 4.73797 30.5028 4.02417 29.9765 3.49657C29.4503 2.96898 28.7692 2.68967 27.9644 2.68967C27.1595 2.68967 26.5094 2.96898 25.9831 3.49657C25.4569 4.02417 25.2092 4.73797 25.2092 5.60694C25.2092 6.44488 25.4569 7.15868 25.9831 7.68627Z" fill="white"/>
<path d="M34.9606 0.920757C34.9606 0.672479 35.0844 0.54834 35.3321 0.54834H37.0656C37.3133 0.54834 37.4681 0.672479 37.4681 0.920757V10.2312C37.4681 10.4795 37.3442 10.6036 37.0656 10.6036H35.3321C35.0844 10.6036 34.9606 10.4795 34.9606 10.2312V0.920757ZM37.8086 5.85529C37.7157 5.73115 37.6848 5.60701 37.6848 5.51391C37.6848 5.4208 37.7467 5.29666 37.8396 5.17252L40.8424 0.920757C40.9352 0.765583 41.0591 0.641444 41.121 0.610409C41.2138 0.54834 41.3377 0.54834 41.5234 0.54834H43.5356C43.7213 0.54834 43.8452 0.610409 43.8452 0.734549C43.8452 0.796618 43.8142 0.858688 43.7523 0.951792L40.4399 5.4208L43.9071 10.1691C43.969 10.2312 44 10.3243 44 10.3864C44 10.5105 43.9071 10.5726 43.6904 10.5726H41.6163C41.4305 10.5726 41.2758 10.5415 41.1829 10.5105C41.09 10.4484 40.9971 10.3553 40.9043 10.2002L37.8086 5.85529Z" fill="white"/>
<path d="M21.773 24.0416C21.8968 23.8244 22.0206 23.7313 22.1754 23.7313C22.2683 23.7313 22.3921 23.7933 22.5469 23.9175C23.6304 24.7244 24.7758 25.1589 25.9831 25.1589C26.6332 25.1589 27.1285 25.0658 27.469 24.8485C27.8095 24.6313 27.9953 24.352 27.9953 24.0106C27.9953 23.6692 27.8095 23.3899 27.469 23.2037C27.1285 23.0175 26.4475 22.8002 25.4568 22.5519C23.9709 22.1795 22.8565 21.683 22.1135 21.0312C21.3705 20.3795 21.03 19.4485 21.03 18.2381C21.03 16.8105 21.5253 15.6933 22.5159 14.9174C23.5375 14.0794 24.8067 13.707 26.4165 13.707C28.2739 13.707 29.9146 14.2967 31.3386 15.445C31.4934 15.5691 31.5863 15.6933 31.5863 15.8484C31.5863 15.9726 31.5244 16.1277 31.4315 16.2519L30.348 17.9588C30.2242 18.145 30.1004 18.2381 29.9765 18.2381C29.8837 18.2381 29.7289 18.176 29.605 18.0829C28.4906 17.276 27.4381 16.8726 26.4165 16.8726C25.8902 16.8726 25.4568 16.9657 25.1473 17.1829C24.8377 17.4002 24.6829 17.6795 24.6829 17.9898C24.6829 18.3622 24.8687 18.6416 25.2092 18.8278C25.5497 19.014 26.1688 19.2312 27.0666 19.4485C28.6454 19.8519 29.7908 20.3795 30.5337 21.0312C31.2767 21.683 31.6482 22.614 31.6482 23.7933C31.6482 25.2209 31.1529 26.3072 30.1313 27.1451C29.1097 27.952 27.7476 28.3555 26.045 28.3555C24.0328 28.3555 22.3302 27.7968 20.9062 26.6485C20.6895 26.4934 20.5966 26.3382 20.5966 26.183C20.5966 26.0589 20.6585 25.9037 20.7514 25.7485L21.773 24.0416Z" fill="white"/>
<path d="M33.8461 14.4829C33.8461 14.1415 34.0319 13.9553 34.3724 13.9553H42.8236C43.1951 13.9553 43.3808 14.1415 43.3808 14.4829V16.6553C43.3808 16.9967 43.1951 17.1829 42.8236 17.1829H37.6538C37.4371 17.1829 37.3442 17.276 37.3442 17.4933V19.0761C37.3442 19.2002 37.3752 19.2933 37.4062 19.3243C37.4371 19.3554 37.53 19.3864 37.6538 19.3864H42.1735C42.514 19.3864 42.6998 19.5726 42.6998 19.945V22.1175C42.6998 22.4589 42.514 22.6451 42.1735 22.6451H37.6538C37.4371 22.6451 37.3442 22.7382 37.3442 22.9554V24.6003C37.3442 24.8175 37.4371 24.9106 37.6538 24.9106H42.8546C43.226 24.9106 43.4118 25.0968 43.4118 25.4382V27.6106C43.4118 27.952 43.226 28.1382 42.8546 28.1382H34.3724C34.0319 28.1382 33.8461 27.952 33.8461 27.6106V14.4829Z" fill="white"/>
<path d="M11.9597 14.7933C11.9597 14.3277 11.5882 13.9553 11.1238 13.9553H9.26644C8.80208 13.9553 8.4306 14.3277 8.4306 14.7933V16.5002H11.9287V14.7933H11.9597Z" fill="white"/>
<path d="M8.46161 25.252V27.2382C8.46161 27.7037 8.83309 28.0761 9.29744 28.0761H11.1548C11.6192 28.0761 11.9907 27.7037 11.9907 27.2382V25.252H8.46161Z" fill="white"/>
<path d="M11.9597 24.2898V17.4312H8.46161V24.2898H11.9597Z" fill="white"/>
<path d="M14.6219 27.3003C14.6219 27.7347 14.9625 28.0761 15.3959 28.0761H17.3461C17.7795 28.0761 18.1201 27.7347 18.1201 27.3003V18.7036H14.6219V27.3003Z" fill="white"/>
<path d="M18.1201 14.7312C18.1201 14.2967 17.7795 13.9553 17.3461 13.9553H15.3959C14.9625 13.9553 14.6219 14.2967 14.6219 14.7312V17.1519H18.1201V14.7312Z" fill="white"/>
<path d="M18.1201 17.3071H14.6219V17.8037H18.1201V17.3071Z" fill="white"/>
<path d="M0.0722827 26.2451C-0.113458 26.6486 0.0722827 27.1141 0.474721 27.3003L2.2083 28.1072C2.61074 28.2934 3.07509 28.1072 3.26083 27.7038L6.60416 20.3175L3.41562 18.8899L0.0722827 26.2451Z" fill="white"/>
<path d="M8.05915 15.2278L6.32557 14.4209C5.92313 14.2346 5.45878 14.4209 5.27304 14.8243L4.09668 17.4312L7.28523 18.8899L8.46159 16.2829C8.61637 15.9105 8.46159 15.414 8.05915 15.2278Z" fill="white"/>
<path d="M3.68953 18.2737L3.54852 18.5845L6.73251 20.0367L6.87352 19.726L3.68953 18.2737Z" fill="white"/>
</svg>
