<svg width="19" height="19" viewBox="0 0 19 19" fill="none" xmlns="http://www.w3.org/2000/svg">
<path d="M18.6092 11.932C17.9606 11.0989 16.7705 10.9779 15.9737 11.6592L13.1352 14.0864H11.8038C12.4682 13.8093 12.9483 13.1569 12.9687 12.398C12.9973 11.3349 12.1619 10.4627 11.1218 10.4627H5.55039V9.8884C5.55039 9.55121 5.28213 9.27783 4.95126 9.27783H1.22938C0.898512 9.27787 0.630249 9.55125 0.630249 9.88844V17.704C0.630249 18.0412 0.898512 18.3146 1.22938 18.3146H4.9513C5.28217 18.3146 5.55043 18.0412 5.55043 17.704V16.7048L6.72347 17.7077C7.04659 17.984 7.4569 18.1362 7.87872 18.1362H13.4937C13.9155 18.1362 14.3258 17.984 14.649 17.7077L18.3291 14.561C19.0993 13.9023 19.225 12.723 18.6092 11.932ZM4.35216 17.0934H1.82852V10.499H4.35216C4.35216 10.8916 4.35216 16.8124 4.35216 17.0934ZM17.5587 13.6255L13.8787 16.7722C13.771 16.8643 13.6342 16.915 13.4935 16.915H7.87865C7.73804 16.915 7.60131 16.8643 7.49357 16.7722L5.55036 15.1108V11.6838H11.1218C11.4854 11.6838 11.781 11.9882 11.7709 12.3646C11.7613 12.719 11.4585 13.0073 11.0958 13.0073C10.8353 13.0073 8.97488 13.0073 8.73901 13.0073C8.40814 13.0073 8.13988 13.2807 8.13988 13.6178C8.13988 13.955 8.40814 14.2284 8.73901 14.2284H9.80066L10.7288 15.0219C10.9442 15.2061 11.2177 15.3076 11.499 15.3076H13.1353C13.4165 15.3076 13.69 15.2062 13.9055 15.0219L16.744 12.5947C17.0224 12.3567 17.4409 12.3961 17.6705 12.691C17.8867 12.9687 17.8366 13.3879 17.5587 13.6255Z" fill="#0B5268"/>
<path d="M13.8878 3.5687L11.4498 3.21668L10.3596 1.02123C10.1374 0.573778 9.49322 0.573525 9.27089 1.02123L8.18063 3.21668L5.74271 3.5687C5.24581 3.64048 5.04653 4.24917 5.40627 4.59767L7.17035 6.30665L6.75386 8.71965C6.66895 9.21144 7.1899 9.5879 7.63463 9.35561L9.81522 8.21634L11.9957 9.35558C12.4377 9.5865 12.962 9.21476 12.8765 8.71962L12.46 6.30661L14.2241 4.59767C14.5837 4.24938 14.385 3.64048 13.8878 3.5687ZM11.4721 7.71885C9.49631 6.68659 10.1422 6.6824 8.15842 7.71885C8.5359 5.53146 8.73812 6.14047 7.13443 4.58694C9.33541 4.26911 8.81206 4.67141 9.81526 2.65135C10.8036 4.64153 10.2798 4.26694 12.496 4.58694C10.8973 6.1357 11.0934 5.52488 11.4721 7.71885Z" fill="#0B5268"/>
</svg>
