<svg width="15" height="15" viewBox="0 0 15 15" fill="none" xmlns="http://www.w3.org/2000/svg">
<path d="M14.6809 9.18339C14.1513 8.50312 13.1795 8.4043 12.5289 8.96067L10.2111 10.9426H9.12389C9.66641 10.7163 10.0584 10.1836 10.0751 9.56391C10.0984 8.69584 9.41627 7.9836 8.56698 7.9836H4.01759V7.51468C4.01759 7.23935 3.79854 7.01611 3.52837 7.01611H0.489228C0.219053 7.01614 0 7.23938 0 7.51471V13.8966C0 14.1719 0.219053 14.3951 0.489228 14.3951H3.52839C3.79857 14.3951 4.01762 14.1719 4.01762 13.8966V13.0807L4.97548 13.8996C5.23933 14.1252 5.57437 14.2495 5.91881 14.2495H10.5037C10.8482 14.2495 11.1833 14.1252 11.4471 13.8996L14.4521 11.3301C15.0811 10.7922 15.1837 9.82927 14.6809 9.18339ZM3.03917 13.398H0.978456V8.01324H3.03917C3.03917 8.33387 3.03917 13.1685 3.03917 13.398ZM13.8231 10.5662L10.8181 13.1357C10.7302 13.2109 10.6185 13.2523 10.5037 13.2523H5.91875C5.80394 13.2523 5.69229 13.2109 5.60431 13.1357L4.01756 11.7791V8.98076H8.56695C8.86385 8.98076 9.10523 9.22928 9.09699 9.53665C9.0892 9.82601 8.84194 10.0614 8.54577 10.0614C8.33302 10.0614 6.81389 10.0614 6.62129 10.0614C6.35112 10.0614 6.13206 10.2847 6.13206 10.56C6.13206 10.8353 6.35112 11.0586 6.62129 11.0586H7.48819L8.24604 11.7065C8.42196 11.8569 8.6453 11.9398 8.87495 11.9398H10.2111C10.4407 11.9398 10.6641 11.857 10.84 11.7065L13.1579 9.72456C13.3852 9.53017 13.7269 9.56238 13.9144 9.8032C14.091 10.0299 14.05 10.3723 13.8231 10.5662Z" fill="#FAF6F6"/>
<path d="M10.8255 2.35426L8.83477 2.06683L7.94451 0.274109C7.76306 -0.0912664 7.23707 -0.0914729 7.05553 0.274109L6.16526 2.06683L4.17455 2.35426C3.76881 2.41288 3.60609 2.90991 3.89983 3.19449L5.34031 4.58997L5.00022 6.56033C4.93088 6.9619 5.35627 7.26931 5.71942 7.07963L7.5 6.14935L9.28053 7.0796C9.64139 7.26816 10.0695 6.96461 9.99973 6.5603L9.65964 4.58994L11.1001 3.19449C11.3938 2.91009 11.2315 2.41288 10.8255 2.35426ZM8.85291 5.74312C7.23959 4.90021 7.76701 4.89679 6.14713 5.74312C6.45536 3.95698 6.62049 4.45427 5.31098 3.18572C7.10821 2.92619 6.68086 3.25469 7.50003 1.60519C8.30706 3.2303 7.87939 2.92442 9.68903 3.18572C8.38356 4.45038 8.54373 3.95161 8.85291 5.74312Z" fill="#FAF6F6"/>
</svg>
