<svg width="16" height="16" viewBox="0 0 16 16" fill="none" xmlns="http://www.w3.org/2000/svg">
<path d="M0.79813 5.16862H5.65935L7.1612 0.538887C7.21294 0.38208 7.31282 0.245587 7.44662 0.148835C7.58043 0.0520824 7.74135 0 7.90647 0C8.07159 0 8.23251 0.0520824 8.36632 0.148835C8.50012 0.245587 8.60001 0.38208 8.65175 0.538887L10.1762 5.16862H15.0374C15.2026 5.16901 15.3635 5.22151 15.4971 5.31867C15.6307 5.41582 15.7303 5.55267 15.7816 5.70971C15.8329 5.86675 15.8333 6.03597 15.7828 6.19327C15.7323 6.35058 15.6335 6.48793 15.5004 6.58578L11.5482 9.44831L13.0613 14.0837C13.0996 14.2014 13.1095 14.3265 13.0902 14.4488C13.0709 14.5711 13.023 14.687 12.9503 14.7872C12.8776 14.8874 12.7823 14.969 12.672 15.0253C12.5618 15.0817 12.4398 15.1111 12.316 15.1113C12.1549 15.1043 11.9995 15.0492 11.87 14.9532L7.91776 12.0906L3.96555 14.9532C3.83219 15.0494 3.67263 15.1026 3.50822 15.1056C3.38443 15.1055 3.26244 15.076 3.15221 15.0197C3.04197 14.9634 2.94663 14.8818 2.87395 14.7816C2.80127 14.6814 2.75333 14.5654 2.73404 14.4431C2.71475 14.3209 2.72465 14.1958 2.76295 14.078L4.26479 9.44266L0.312573 6.58013C0.18022 6.48042 0.0828255 6.34137 0.0343444 6.18291C-0.0141366 6.02445 -0.0112166 5.85472 0.0426871 5.69802C0.0965908 5.54132 0.198712 5.40571 0.334416 5.31061C0.470121 5.21551 0.632444 5.16581 0.79813 5.16862ZM4.94231 8.55624L5.60289 9.0418L5.35447 9.82095L4.17445 13.44L7.25153 11.1816L7.91776 10.6961L8.58399 11.1816L11.6611 13.44L10.4811 9.82095L10.2326 9.0418L10.8932 8.55624L13.9703 6.29783H9.34621L9.09214 5.51868L7.91776 1.90522L6.74339 5.51868L6.48932 6.29783H1.86523L4.94231 8.55624Z" fill="#F07168"/>
</svg>
