<svg width="8" height="14" viewBox="0 0 8 14" fill="none" xmlns="http://www.w3.org/2000/svg">
<path d="M0.753745 0.649414C0.356209 0.649414 0.0339355 0.961921 0.0339355 1.34741C0.0339355 1.7329 0.356209 2.04541 0.753745 2.04541H6.99209C7.38962 2.04541 7.7119 1.7329 7.7119 1.34741C7.7119 0.961921 7.38962 0.649414 6.99209 0.649414H0.753745Z" fill="#F07168"/>
<path d="M0.753745 4.48828C0.356209 4.48828 0.0339355 4.80079 0.0339355 5.18628C0.0339355 5.57176 0.356209 5.88428 0.753745 5.88428H6.99209C7.38962 5.88428 7.7119 5.57176 7.7119 5.18628C7.7119 4.80079 7.38962 4.48828 6.99209 4.48828H0.753745Z" fill="#F07168"/>
<path d="M0.0339355 9.02515C0.0339355 8.63966 0.356209 8.32715 0.753745 8.32715H6.99209C7.38962 8.32715 7.7119 8.63966 7.7119 9.02515C7.7119 9.41063 7.38962 9.72314 6.99209 9.72314H0.753745C0.356209 9.72314 0.0339355 9.41063 0.0339355 9.02515Z" fill="#F07168"/>
<path d="M0.753745 12.1665C0.356209 12.1665 0.0339355 12.479 0.0339355 12.8645C0.0339355 13.25 0.356209 13.5625 0.753745 13.5625H6.99209C7.38962 13.5625 7.7119 13.25 7.7119 12.8645C7.7119 12.479 7.38962 12.1665 6.99209 12.1665H0.753745Z" fill="#F07168"/>
</svg>
