<svg width="430" height="135" viewBox="0 0 430 135" fill="none" xmlns="http://www.w3.org/2000/svg">
<ellipse cx="215.5" cy="-451.5" rx="626.5" ry="562.5" fill="#ED7068"/>
<path d="M897 -248C897 -37.0272 725.973 134 515 134C304.027 134 133 -37.0272 133 -248C133 -458.973 304.027 -630 515 -630C725.973 -630 897 -458.973 897 -248Z" stroke="white" stroke-opacity="0.2" stroke-width="2"/>
<path d="M193.661 52.1288C193.661 51.8693 193.791 51.7395 194.05 51.7395H197.966C199.26 51.7395 200.264 51.9666 200.943 52.4209C201.623 52.8751 201.946 53.6213 201.946 54.6596C201.946 55.6654 201.526 56.3792 200.652 56.801C201.137 56.9632 201.558 57.2228 201.849 57.6121C202.141 58.0015 202.302 58.4882 202.302 59.0397C202.302 61.1811 200.878 62.2519 198.03 62.2519H194.05C193.791 62.2519 193.661 62.1221 193.661 61.8625V52.1288ZM197.836 55.7952C198.354 55.7952 198.742 55.7303 198.969 55.6005C199.196 55.4707 199.325 55.2436 199.325 54.9192C199.325 54.5947 199.196 54.3676 198.969 54.2378C198.742 54.108 198.354 54.0431 197.836 54.0431H196.509C196.348 54.0431 196.283 54.108 196.283 54.2703V55.6005C196.283 55.7627 196.348 55.8276 196.509 55.8276H197.836V55.7952ZM198.03 59.9807C198.581 59.9807 198.969 59.9158 199.228 59.7535C199.487 59.5913 199.616 59.3642 199.616 59.0397C199.616 58.4233 199.098 58.0988 198.03 58.0988H196.509C196.412 58.0988 196.348 58.0988 196.315 58.1313C196.283 58.1637 196.283 58.2286 196.283 58.3259V59.7535C196.283 59.9158 196.348 59.9807 196.509 59.9807H198.03Z" fill="white"/>
<path d="M203.306 57.0281C203.306 55.4383 203.824 54.108 204.892 53.1022C205.96 52.0639 207.287 51.5448 208.905 51.5448C210.555 51.5448 211.882 52.0639 212.95 53.0697C214.018 54.0756 214.536 55.4058 214.536 56.9956C214.536 58.5855 214.018 59.8833 212.95 60.9216C211.882 61.9274 210.523 62.4465 208.905 62.4465C207.287 62.4465 205.96 61.9274 204.892 60.9216C203.824 59.9157 203.306 58.6179 203.306 57.0281ZM206.833 59.2019C207.384 59.7535 208.063 60.0455 208.905 60.0455C209.746 60.0455 210.458 59.7535 211.008 59.2019C211.559 58.6504 211.85 57.9041 211.85 57.0281C211.85 56.1196 211.559 55.3734 211.008 54.8218C210.458 54.2702 209.746 53.9782 208.905 53.9782C208.063 53.9782 207.384 54.2702 206.833 54.8218C206.283 55.3734 206.024 56.1196 206.024 57.0281C205.992 57.9041 206.283 58.6504 206.833 59.2019Z" fill="white"/>
<path d="M215.637 57.0281C215.637 55.4383 216.154 54.108 217.222 53.1022C218.29 52.0639 219.617 51.5448 221.236 51.5448C222.886 51.5448 224.213 52.0639 225.281 53.0697C226.349 54.0756 226.867 55.4058 226.867 56.9956C226.867 58.5855 226.349 59.8833 225.281 60.9216C224.213 61.9274 222.854 62.4465 221.236 62.4465C219.617 62.4465 218.29 61.9274 217.222 60.9216C216.154 59.9157 215.637 58.6179 215.637 57.0281ZM219.164 59.2019C219.714 59.7535 220.394 60.0455 221.236 60.0455C222.077 60.0455 222.789 59.7535 223.339 59.2019C223.889 58.6504 224.181 57.9041 224.181 57.0281C224.181 56.1196 223.889 55.3734 223.339 54.8218C222.789 54.2702 222.077 53.9782 221.236 53.9782C220.394 53.9782 219.714 54.2702 219.164 54.8218C218.614 55.3734 218.355 56.1196 218.355 57.0281C218.355 57.9041 218.614 58.6504 219.164 59.2019Z" fill="white"/>
<path d="M228.55 52.1288C228.55 51.8693 228.679 51.7395 228.938 51.7395H230.75C231.009 51.7395 231.171 51.8693 231.171 52.1288V61.8625C231.171 62.1221 231.042 62.2519 230.75 62.2519H228.938C228.679 62.2519 228.55 62.1221 228.55 61.8625V52.1288ZM231.527 57.2877C231.43 57.1579 231.398 57.0281 231.398 56.9308C231.398 56.8334 231.462 56.7037 231.56 56.5739L234.699 52.1288C234.796 51.9666 234.925 51.8368 234.99 51.8044C235.087 51.7395 235.217 51.7395 235.411 51.7395H237.515C237.709 51.7395 237.838 51.8044 237.838 51.9342C237.838 51.9991 237.806 52.064 237.741 52.1613L234.278 56.8334L237.903 61.7976C237.968 61.8625 238 61.9598 238 62.0247C238 62.1545 237.903 62.2194 237.676 62.2194H235.508C235.314 62.2194 235.152 62.187 235.055 62.1545C234.958 62.0896 234.861 61.9923 234.764 61.8301L231.527 57.2877Z" fill="white"/>
<path d="M214.763 76.3007C214.892 76.0736 215.022 75.9762 215.183 75.9762C215.28 75.9762 215.41 76.0411 215.572 76.1709C216.705 77.0145 217.902 77.4687 219.164 77.4687C219.844 77.4687 220.362 77.3714 220.718 77.1443C221.074 76.9172 221.268 76.6251 221.268 76.2682C221.268 75.9113 221.074 75.6193 220.718 75.4247C220.362 75.23 219.65 75.0029 218.614 74.7433C217.061 74.354 215.895 73.8348 215.119 73.1535C214.342 72.4721 213.986 71.4988 213.986 70.2334C213.986 68.7409 214.504 67.5729 215.539 66.7617C216.607 65.8857 217.934 65.4963 219.617 65.4963C221.559 65.4963 223.274 66.1128 224.763 67.3133C224.925 67.4431 225.022 67.5729 225.022 67.7351C225.022 67.8649 224.957 68.0271 224.86 68.1569L223.727 69.9414C223.598 70.136 223.469 70.2334 223.339 70.2334C223.242 70.2334 223.08 70.1685 222.951 70.0712C221.786 69.2276 220.685 68.8058 219.617 68.8058C219.067 68.8058 218.614 68.9031 218.29 69.1302C217.967 69.3574 217.805 69.6494 217.805 69.9738C217.805 70.3632 217.999 70.6552 218.355 70.8498C218.711 71.0445 219.358 71.2716 220.297 71.4988C221.947 71.9206 223.145 72.4721 223.922 73.1535C224.698 73.8348 225.087 74.8082 225.087 76.0411C225.087 77.5336 224.569 78.6692 223.501 79.5452C222.433 80.3888 221.009 80.8106 219.229 80.8106C217.125 80.8106 215.345 80.2266 213.856 79.0261C213.63 78.8639 213.533 78.7017 213.533 78.5394C213.533 78.4097 213.598 78.2474 213.695 78.0852L214.763 76.3007Z" fill="white"/>
<path d="M227.385 66.3076C227.385 65.9507 227.579 65.756 227.935 65.756H236.77C237.159 65.756 237.353 65.9507 237.353 66.3076V68.5787C237.353 68.9356 237.159 69.1303 236.77 69.1303H231.365C231.139 69.1303 231.042 69.2277 231.042 69.4548V71.1095C231.042 71.2393 231.074 71.3366 231.107 71.3691C231.139 71.4015 231.236 71.4339 231.365 71.4339H236.091C236.447 71.4339 236.641 71.6286 236.641 72.018V74.2892C236.641 74.6461 236.447 74.8407 236.091 74.8407H231.365C231.139 74.8407 231.042 74.9381 231.042 75.1652V76.8848C231.042 77.1119 231.139 77.2092 231.365 77.2092H236.803C237.191 77.2092 237.385 77.4039 237.385 77.7608V80.032C237.385 80.3889 237.191 80.5836 236.803 80.5836H227.935C227.579 80.5836 227.385 80.3889 227.385 80.032V66.3076Z" fill="white"/>
<path d="M204.503 66.632C204.503 66.1453 204.115 65.756 203.63 65.756H201.688C201.202 65.756 200.814 66.1453 200.814 66.632V68.4165H204.471V66.632H204.503Z" fill="white"/>
<path d="M200.846 77.5662V79.6427C200.846 80.1294 201.235 80.5187 201.72 80.5187H203.662C204.147 80.5187 204.536 80.1294 204.536 79.6427V77.5662H200.846Z" fill="white"/>
<path d="M204.504 76.5604V69.3899H200.846V76.5604H204.504Z" fill="white"/>
<path d="M207.287 79.7076C207.287 80.1619 207.643 80.5188 208.096 80.5188H210.135C210.588 80.5188 210.944 80.1619 210.944 79.7076V70.7202H207.287V79.7076Z" fill="white"/>
<path d="M210.944 66.5671C210.944 66.1129 210.588 65.756 210.135 65.756H208.096C207.643 65.756 207.287 66.1129 207.287 66.5671V69.0979H210.944V66.5671Z" fill="white"/>
<path d="M210.944 69.2601H207.287V69.7793H210.944V69.2601Z" fill="white"/>
<path d="M192.076 78.6044C191.881 79.0262 192.076 79.5129 192.496 79.7075L194.309 80.5511C194.729 80.7458 195.215 80.5511 195.409 80.1293L198.904 72.4073L195.571 70.9148L192.076 78.6044Z" fill="white"/>
<path d="M200.425 67.0862L198.613 66.2426C198.192 66.048 197.707 66.2426 197.513 66.6644L196.283 69.3898L199.616 70.9148L200.846 68.1894C201.008 67.8 200.846 67.2809 200.425 67.0862Z" fill="white"/>
<path d="M195.857 70.2707L195.71 70.5956L199.038 72.1138L199.186 71.789L195.857 70.2707Z" fill="white"/>
<circle cx="400" cy="-319" r="382" stroke="white" stroke-opacity="0.23" stroke-width="2"/>
</svg>
